<?xml version="1.0" encoding="utf-8"?>
<!-- Generator: Adobe Illustrator 16.0.0, SVG Export Plug-In . SVG Version: 6.00 Build 0)  -->
<!DOCTYPE svg PUBLIC "-//W3C//DTD SVG 1.1//EN" "http://www.w3.org/Graphics/SVG/1.1/DTD/svg11.dtd">
<svg version="1.1" id="Capa_1" xmlns="http://www.w3.org/2000/svg" xmlns:xlink="http://www.w3.org/1999/xlink" x="0px" y="0px"
	 width="123px" height="123px" viewBox="236.14 359.445 123 123" enable-background="new 236.14 359.445 123 123"
	 xml:space="preserve">
<g>
	<g>
		<g>
			<path d="M342.784,394.084l-44.381-21.425c-0.394-0.19-0.852-0.19-1.245,0l-44.381,21.425c-0.495,0.239-0.809,0.74-0.809,1.289
				v52.033c0,0.55,0.314,1.051,0.809,1.289l44.381,21.426c0.196,0.095,0.41,0.143,0.623,0.143s0.425-0.048,0.623-0.143
				l44.381-21.426c0.495-0.238,0.81-0.739,0.81-1.289v-52.032C343.593,394.824,343.279,394.323,342.784,394.084z M297.78,375.539
				l41.087,19.834l-11.911,5.75c-0.075-0.058-0.155-0.111-0.241-0.153l-40.809-19.7L297.78,375.539z M282.673,382.89l41.028,19.806
				l-8.403,4.057l-41.01-19.798L282.673,382.89z M324.661,405.412v14.996l-7.85,3.788v-14.994L324.661,405.412z M340.729,446.509
				l-41.517,20.042v-48.853l9.902-4.781c0.712-0.343,1.011-1.2,0.667-1.912c-0.344-0.712-1.199-1.011-1.912-0.667l-10.089,4.871
				l-3.97-1.917c-0.712-0.344-1.568-0.045-1.913,0.667c-0.343,0.712-0.044,1.568,0.667,1.912l3.783,1.827v48.853l-41.517-20.042
				v-48.854l31.615,15.263c0.2,0.097,0.413,0.143,0.621,0.143c0.532,0,1.043-0.298,1.291-0.81c0.344-0.712,0.045-1.568-0.667-1.912
				l-30.998-14.966l14.224-6.866l43.011,20.764c0.007,0.009,0.014,0.017,0.021,0.026v17.182c0,0.492,0.253,0.951,0.67,1.213
				c0.232,0.146,0.497,0.219,0.762,0.219c0.213,0,0.426-0.047,0.622-0.142l10.714-5.172c0.494-0.239,0.809-0.74,0.809-1.29v-17.276
				l13.205-6.375V446.509L340.729,446.509z"/>
		</g>
	</g>
	<g>
		<g>
			<path d="M266.647,440.955l-6.513-3.145c-0.712-0.345-1.568-0.045-1.912,0.667c-0.344,0.713-0.045,1.568,0.667,1.912l6.513,3.145
				c0.201,0.097,0.413,0.143,0.622,0.143c0.532,0,1.043-0.299,1.29-0.811C267.658,442.154,267.36,441.299,266.647,440.955z"/>
		</g>
	</g>
	<g>
		<g>
			<path d="M272.642,437.052l-12.498-6.033c-0.713-0.343-1.569-0.046-1.912,0.667c-0.344,0.712-0.045,1.569,0.667,1.912
				l12.498,6.033c0.201,0.098,0.413,0.144,0.621,0.144c0.533,0,1.043-0.299,1.291-0.81
				C273.652,438.253,273.354,437.396,272.642,437.052z"/>
		</g>
	</g>
</g>
</svg>
